<?xml version="1.0" encoding="utf-8"?>
<svg version="1.1" id="layer" xmlns="http://www.w3.org/2000/svg" xmlns:xlink="http://www.w3.org/1999/xlink" x="0px" y="0px"
	 viewBox="0 250 652 150" style="enable-background:new 0 250 652 150;" xml:space="preserve">
<style type="text/css">
	.st0{fill:#FFC63F;}
	.st1{fill:#F48D20;}
	.st2{fill:#D76626;}
	.st3{fill:#000700;}
</style>
<title>Firemon-big</title>
<path class="st0" d="M450.3,307.3c-0.8-20.8,17.6-40.1,41.3-39.8c20.5,0.2,40.3,16.5,39.6,40.9c-0.6,23.1-19.7,39.8-42,39.3
	C467.7,347.2,449.2,329.4,450.3,307.3z M518.1,307.6c0.2-15.6-10.8-28-27.2-28c-16.9,0-27.6,12.1-27.7,27.8
	c-0.1,17.2,12.9,27.9,27.5,27.9S518.3,324.5,518.1,307.6z"/>
<rect x="521.7" y="338.9" transform="matrix(0.7071 -0.7071 0.7071 0.7071 -89.7889 475.3293)" class="st0" width="14.3" height="14.3"/>
<rect x="536" y="353.2" transform="matrix(0.7071 -0.7071 0.7071 0.7071 -95.7208 489.6169)" class="st1" width="14.3" height="14.3"/>
<rect x="550.3" y="367.5" transform="matrix(0.7071 -0.7071 0.7071 0.7071 -101.6401 503.9171)" class="st2" width="14.3" height="14.3"/>
<path class="st3" d="M26.5,273.9c-0.1-3.5,2.7-6.5,6.2-6.6c0.2,0,0.3,0,0.5,0h45.1c3-0.1,5.5,2.2,5.7,5.1c0,0.2,0,0.4,0,0.5
	c0.2,3.1-2.1,5.7-5.2,5.9c-0.2,0-0.3,0-0.5,0H39.8v25.8h32.7c3-0.1,5.5,2.2,5.6,5.2c0,0.2,0,0.3,0,0.5c0.2,3-2.1,5.5-5.1,5.7
	c-0.2,0-0.3,0-0.5,0H39.9v26.1c0.1,3.6-2.7,6.6-6.2,6.7c-0.1,0-0.2,0-0.4,0c-3.6,0.1-6.6-2.7-6.7-6.3c0-0.1,0-0.3,0-0.4L26.5,273.9z
	 M129,273.4v68.8c0,3.8-3.1,6.9-6.9,6.9s-6.9-3.1-6.9-6.9v-68.8c0-3.8,3.1-6.9,6.9-6.9S129,269.6,129,273.4z M163.1,342.4v-68.5
	c-0.1-3.5,2.7-6.5,6.2-6.6c0.2,0,0.3,0,0.5,0h28.3c16.8,0,28.2,10.6,28.2,25.4c0,11.7-7.3,20.8-18.5,23.8l15.8,21.3
	c1.2,1.4,1.9,3.2,2,5c0.2,3.3-2.4,6.2-5.7,6.4c-0.2,0-0.4,0-0.6,0c-2.2,0-4.2-1.1-5.4-2.9l-20.4-27.7h-17.1v23.8
	c0.2,3.7-2.7,6.8-6.4,7c-3.7,0.2-6.8-2.7-7-6.4C163.1,342.8,163.1,342.6,163.1,342.4z M196.6,308.1c10.2,0,16.5-6.3,16.5-14.7
	c0-8.5-6.3-14.9-16.5-14.9h-20.1v29.6H196.6z M255.8,273.9c-0.1-3.5,2.7-6.5,6.2-6.6c0.2,0,0.3,0,0.5,0h46.2c3-0.2,5.5,2.1,5.7,5.1
	c0,0.2,0,0.4,0,0.6c0.2,3.1-2.1,5.7-5.2,5.9c-0.2,0-0.3,0-0.5,0h-39.6v22.1h34c2.9-0.2,5.3,2,5.4,4.9c0,0.2,0,0.4,0,0.6
	c0.2,2.9-2,5.3-4.9,5.4c-0.2,0-0.3,0-0.5,0h-34v25.1h40.6c3-0.1,5.5,2.2,5.7,5.2c0,0.2,0,0.3,0,0.5c0.2,3.1-2.1,5.7-5.2,5.9
	c-0.2,0-0.3,0-0.5,0h-47.4c-3.6,0.1-6.6-2.6-6.7-6.2c0-0.2,0-0.4,0-0.5L255.8,273.9z M343.9,275c-0.2-4.4,3.3-8.2,7.7-8.4
	c0.2,0,0.4,0,0.7,0c3.6,0,6.3,2.2,8,5.6l25.2,46.8l25.6-47.5c1.3-2.9,4.2-4.9,7.4-4.9c4.2-0.1,7.7,3.1,7.8,7.3c0,0.2,0,0.4,0,0.5
	v68.1c0,3.6-2.9,6.4-6.4,6.5s-6.4-2.9-6.5-6.4c0,0,0,0,0,0v-52.4l-22.1,40.5c-1.3,2.5-3,4.5-6,4.5c-3,0-4.9-2-6.2-4.5l-22.2-40.5
	v52.4c0.2,3.6-2.6,6.6-6.2,6.8c-3.6,0.2-6.6-2.6-6.8-6.2c0-0.2,0-0.4,0-0.6L343.9,275z M555.7,275.5c-0.2-4.7,3.5-8.6,8.1-8.8
	c0.2,0,0.4,0,0.7,0c3.1,0.1,6,1.7,7.7,4.4l41.3,56.4V273c0.2-3.6,3.2-6.4,6.8-6.2c3.4,0.1,6.1,2.8,6.2,6.2v67.8
	c0.2,4.3-3.2,8-7.5,8.2c-0.2,0-0.3,0-0.5,0c-3.1-0.2-6-1.8-7.7-4.5l-42-57.6v55.5c0.2,3.6-2.7,6.7-6.3,6.9c-3.6,0.2-6.7-2.7-6.9-6.3
	c0-0.2,0-0.4,0-0.6L555.7,275.5z"/>
</svg>
